<svg viewBox="0 0 200 200" xmlns="http://www.w3.org/2000/svg"><path fill="currentColor" d="M175.25,111.203756 L157.9425,111.203756 L157.9425,73.3729713 L173.544167,57.8192512 C175.786667,55.5781364 175.786667,51.938719 173.563333,49.6976042 C171.301667,47.4373344 167.66,47.4564893 165.4175,49.6784494 L149.815833,65.2321696 L51.1266667,65.2321696 L35.5058333,49.6784494 C33.2633333,47.4373346 29.6216665,47.4373346 27.3791667,49.6976042 C25.1366667,51.938719 25.1366667,55.5781364 27.3983333,57.8192512 L43.0575,73.4304358 L43.0575,111.203756 L25.75,111.203756 C22.5683333,111.203756 20,113.770503 20,116.950205 C20,120.129906 22.5683333,122.696653 25.75,122.696653 L43.0575,122.696653 L43.0575,128.021695 C43.0191667,128.289863 43,128.55803 43,128.826198 C43,137.848122 45.4341667,146.33371 49.7466667,153.784939 L33.2058333,170.33471 C30.9633333,172.575825 30.9633333,176.215242 33.2058333,178.456357 C34.3366665,179.586492 35.7933333,180.141982 37.2691667,180.141982 C38.7450002,180.141981 40.2208335,179.586492 41.3325,178.456357 L56.6275,163.151649 C67.1883333,174.663701 82.9241667,182 100.5,182 C118.075833,182 133.830833,174.663701 144.3725,163.151649 L159.686667,178.475512 C160.8175,179.605646 162.274167,180.161137 163.75,180.161137 C165.225833,180.161137 166.701667,179.605647 167.813333,178.475512 C170.055833,176.234397 170.055833,172.594979 167.813333,170.353865 L151.253333,153.784939 C155.546667,146.333711 157.980833,137.848122 157.980833,128.826198 C157.980833,128.55803 157.961667,128.289863 157.923333,128.021695 L157.923333,122.696653 L175.25,122.696653 C178.431667,122.696653 181,120.129906 181,116.950205 C181,113.770503 178.431667,111.203756 175.25,111.203756 Z M146.961659,76 L146.961659,128.401967 C146.961659,128.652325 146.980829,128.902684 147,129.153042 C146.597416,150.163901 129.113774,167.457898 106.684101,169.980742 C106.741613,169.672608 106.760784,169.364474 106.760784,169.037083 L106.760784,104.887523 C106.760784,101.690637 104.191915,99.1100184 101.009585,99.1100184 C97.8272556,99.1100184 95.2583872,101.690637 95.2583872,104.887523 L95.2583872,169.056341 C95.2583872,169.383733 95.2775579,169.691866 95.3350699,170 C72.905397,167.477156 55.4217546,150.183159 55,129.172301 C55.0383413,128.921942 55.057512,128.671584 55.057512,128.421225 L55.057512,76 L146.961659,76 Z M100.496672,19 C115.905991,19 129.686215,30.025 134.745991,46.4361112 C135.282634,48.2055557 134.956815,50.1305557 133.88353,51.6277778 C132.791078,53.125 131.08532,54 129.245401,54 L71.7479429,54 C69.9080242,54 68.2022661,53.125 67.1289803,51.6277778 C66.0365286,50.1305557 65.7107097,48.2055557 66.2665184,46.4361112 C71.3071291,30.025 85.0681873,19 100.496672,19 Z M100.496672,30.6666667 C92.6195203,30.6666667 85.317343,35.1388888 80.7175464,42.3333333 L120.275798,42.3333333 C115.676001,35.1388888 108.373824,30.6666667 100.496672,30.6666667 Z"/></svg>