<svg viewBox="0 0 1024 1024" xmlns="http://www.w3.org/2000/svg"><path d="M734.464 390.506667c-13.589333 0-25.557333 11.008-25.557333 24.597333v368.277333a24.469333 24.469333 0 0 1-24.768 24.32h-344.533334a24.682667 24.682667 0 0 1-24.96-24.32v-369.28c0-13.589333-9.962667-24.597333-23.594666-24.597333-13.610667 0-23.573333 11.008-23.573334 24.597333v369.322667c0 40.64 31.36 76.16 72 76.16h344.362667c40.618667 0 75.968-35.477333 75.968-76.16V415.104c0.128-13.44-11.818667-24.597333-25.344-24.597333zM460.629333 685.098667V414.464c0-13.653333-9.962667-24.618667-23.573333-24.618667-13.589333 0-23.594667 10.965333-23.594667 24.618667v270.464c0 13.653333 9.962667 24.597333 23.552 24.597333 13.610667 0 23.616-10.816 23.616-24.426666z m149.397334 0V414.464c0-13.653333-12.16-24.618667-25.557334-24.618667-13.482667 0-25.557333 10.965333-25.557333 24.618667v270.464c0 13.653333 12.074667 24.597333 25.557333 24.597333 13.333333 0 25.557333-10.816 25.557334-24.426666z m218.090666-392.576H708.906667v-50.069334c0-40.64-33.258667-71.466667-73.493334-71.466666l-246.741333-0.192c-40.618667 0-74.026667 30.805333-74.026667 71.466666v50.261334H195.52c-13.589333 0-24.64 9.962667-24.64 23.552 0 13.610667 11.008 23.573333 24.64 23.573333h632.597333c13.568 0 24.618667-9.962667 24.618667-23.573333 0-13.589333-11.093333-23.552-24.618667-23.552z m-170.581333 0h-295.04v-50.069334c0-13.610667 12.757333-24.469333 26.346667-24.469333h246.570666c13.461333 0 22.442667 10.645333 22.442667 24.469333l-0.32 50.069334z" fill="currentColor"/></svg>