<svg viewBox="0 0 214 214" xmlns="http://www.w3.org/2000/svg">
    <g id="code">
        <path d="M193.363636,184.090909 L20.6363637,184.090909 C15.6363637,184.090909 11.5454545,180 11.5454545,175 L11.5454545,56.8181816 L202.454546,56.8181816 L202.454546,175 C202.454546,180 198.363636,184.090909 193.363636,184.090909 Z" id="路径" fill="#2B5367" fill-rule="nonzero"/>
        <path d="M202.454546,56.8181816 L11.5454545,56.8181816 L11.5454545,38.6363635 C11.5454545,33.6363635 15.6363637,29.5454545 20.6363637,29.5454545 L193.363636,29.5454545 C198.363636,29.5454545 202.454546,33.6363637 202.454546,38.6363635 L202.454546,56.8181816 Z" id="路径" fill="#ECF0F9" fill-rule="nonzero"/>
        <path d="M193.363636,25 L20.6363637,25 C12.9090908,25 7,30.9090908 7,38.6363635 L7,175 C7,182.727273 12.9090908,188.636363 20.6363637,188.636363 L193.363636,188.636363 C201.090909,188.636363 207,182.727273 207,175 L207,38.6363635 C207,30.9090908 201.090909,25 193.363636,25 L193.363636,25 Z M16.0909092,38.6363635 C16.0909092,35.9090908 17.909091,34.090909 20.6363637,34.090909 L193.363636,34.090909 C196.090909,34.090909 197.909091,35.9090908 197.909091,38.6363635 L197.909091,52.2727271 L16.0909092,52.2727271 L16.0909092,38.6363635 Z M197.909091,175 C197.909091,177.727273 196.090909,179.545454 193.363636,179.545454 L20.6363637,179.545454 C17.909091,179.545454 16.0909092,177.727273 16.0909092,175 L16.0909092,61.3636363 L197.909091,61.3636363 L197.909091,175 L197.909091,175 Z" id="形状" fill="#0B3A5B" fill-rule="nonzero"/>
        <path d="M25.1818182,43.1818182 C25.1818182,45.6922034 27.2168875,47.7272728 29.7272728,47.7272728 C32.237658,47.7272728 34.2727273,45.6922034 34.2727273,43.1818182 C34.2727273,40.6714329 32.237658,38.6363636 29.7272728,38.6363636 C27.2168875,38.6363636 25.1818182,40.6714329 25.1818182,43.1818182 L25.1818182,43.1818182 Z" id="路径" fill="#0B3A5B" fill-rule="nonzero"/>
        <path d="M43.3636363,43.1818182 C43.3636363,45.6922034 45.3987057,47.7272728 47.9090909,47.7272728 C50.4194762,47.7272728 52.4545455,45.6922034 52.4545455,43.1818182 C52.4545455,40.6714329 50.4194762,38.6363636 47.9090909,38.6363636 C45.3987057,38.6363636 43.3636363,40.6714329 43.3636363,43.1818182 Z" id="路径" fill="#0B3A5B" fill-rule="nonzero"/>
        <path d="M61.5454545,43.1818182 C61.5454545,45.6922034 63.5805238,47.7272728 66.0909091,47.7272728 C68.6012943,47.7272728 70.6363637,45.6922034 70.6363637,43.1818182 C70.6363637,40.6714329 68.6012943,38.6363636 66.0909091,38.6363636 C63.5805238,38.6363636 61.5454545,40.6714329 61.5454545,43.1818182 Z" id="路径" fill="#0B3A5B" fill-rule="nonzero"/>
        <path d="M25.1818182,72.7272727 C25.1818182,71.3636363 26.090909,70.4545453 27.4545455,70.4545453 L54.7272727,70.4545453 C56.090909,70.4545453 57,71.3636361 57,72.7272727 C57,74.0909092 56.0909092,75 54.7272727,75 L27.4545455,75 C26.0909092,75 25.1818182,74.0909092 25.1818182,72.7272727 Z M66.0909092,168.181818 C66.0909092,166.818182 67,165.909091 68.3636363,165.909091 L95.6363637,165.909091 C97,165.909091 97.9090908,166.818182 97.9090908,168.181818 C97.9090908,169.545455 97,170.454545 95.6363637,170.454545 L68.3636363,170.454545 C67,170.454545 66.0909092,169.545454 66.0909092,168.181818 Z M38.8181818,86.3636363 C38.8181818,85 39.7272727,84.090909 41.0909092,84.090909 L68.3636363,84.090909 C69.7272727,84.090909 70.6363637,84.9999998 70.6363637,86.3636363 C70.6363637,87.7272729 69.7272729,88.6363635 68.3636363,88.6363635 L41.0909092,88.6363635 C39.7272729,88.6363635 38.8181818,87.7272727 38.8181818,86.3636363 L38.8181818,86.3636363 Z M102.454546,154.545454 C102.454546,153.181818 103.363636,152.272727 104.727273,152.272727 L132,152.272727 C133.363636,152.272727 134.272727,153.181818 134.272727,154.545454 C134.272727,155.909091 133.363637,156.818182 132,156.818182 L104.727273,156.818182 C103.363636,156.818182 102.454546,155.909091 102.454546,154.545454 Z M134.272727,86.3636363 C134.272727,85 135.181818,84.090909 136.545454,84.090909 L163.818182,84.090909 C165.181818,84.090909 166.090909,84.9999998 166.090909,86.3636363 C166.090909,87.7272729 165.181818,88.6363635 163.818182,88.6363635 L136.545454,88.6363635 C135.181818,88.6363635 134.272727,87.7272727 134.272727,86.3636363 Z M79.7272727,127.272727 C79.7272727,125.909091 80.6363635,125 82,125 L109.272727,125 C110.636364,125 111.545454,125.909091 111.545454,127.272727 C111.545454,128.636363 110.636364,129.545454 109.272727,129.545454 L82,129.545454 C80.6363637,129.545454 79.7272727,128.636364 79.7272727,127.272727 Z" id="形状" fill="#FFFFFF" fill-rule="nonzero"/>
        <path d="M102.454546,100 C102.454546,98.6363637 103.363636,97.7272727 104.727273,97.7272727 L132,97.7272727 C133.363636,97.7272727 134.272727,98.6363635 134.272727,100 C134.272727,101.363637 133.363637,102.272727 132,102.272727 L104.727273,102.272727 C103.363636,102.272727 102.454546,101.363636 102.454546,100 Z M38.8181818,127.272727 C38.8181818,125.909091 39.7272727,125 41.0909092,125 L68.3636363,125 C69.7272727,125 70.6363637,125.909091 70.6363637,127.272727 C70.6363637,128.636363 69.7272729,129.545454 68.3636363,129.545454 L41.0909092,129.545454 C39.7272729,129.545454 38.8181818,128.636364 38.8181818,127.272727 L38.8181818,127.272727 Z M107,168.181818 C107,166.818182 107.909091,165.909091 109.272727,165.909091 L127.454546,165.909091 C128.818182,165.909091 129.727273,166.818182 129.727273,168.181818 C129.727273,169.545455 128.818182,170.454545 127.454546,170.454545 L109.272727,170.454545 C107.909091,170.454545 107,169.545454 107,168.181818 L107,168.181818 Z" id="形状" fill="#FFCB5D" fill-rule="nonzero"/>
        <path d="M79.7272727,86.3636363 C79.7272727,85 80.6363635,84.090909 82,84.090909 L95.6363637,84.090909 C97,84.090909 97.9090908,84.9999998 97.9090908,86.3636363 C97.9090908,87.7272729 97,88.6363635 95.6363637,88.6363635 L82,88.6363635 C80.6363637,88.6363635 79.7272727,87.7272727 79.7272727,86.3636363 Z" id="路径" fill="#F04D4E" fill-rule="nonzero"/>
        <path d="M107,86.3636363 C107,85 107.909091,84.090909 109.272727,84.090909 L122.909091,84.090909 C124.272727,84.090909 125.181818,84.9999998 125.181818,86.3636363 C125.181818,87.7272729 124.272727,88.6363635 122.909091,88.6363635 L109.272727,88.6363635 C107.909091,88.6363635 107,87.7272727 107,86.3636363 L107,86.3636363 Z M38.8181818,140.909091 C38.8181818,139.545454 39.7272727,138.636363 41.0909092,138.636363 L54.7272727,138.636363 C56.090909,138.636363 57,139.545454 57,140.909091 C57,142.272727 56.0909092,143.181818 54.7272727,143.181818 L41.0909092,143.181818 C39.7272729,143.181818 38.8181818,142.272727 38.8181818,140.909091 Z M25.1818182,113.636363 C25.1818182,112.272727 26.090909,111.363636 27.4545455,111.363636 L41.0909092,111.363636 C42.4545455,111.363636 43.3636363,112.272727 43.3636363,113.636363 C43.3636363,115 42.4545455,115.909091 41.0909092,115.909091 L27.4545455,115.909091 C26.0909092,115.909091 25.1818182,115 25.1818182,113.636363 L25.1818182,113.636363 Z" id="形状" fill="#FFFFFF" fill-rule="nonzero"/>
        <path d="M129.727273,140.909091 C129.727273,139.545454 130.636363,138.636363 132,138.636363 L145.636364,138.636363 C147,138.636363 147.909091,139.545454 147.909091,140.909091 C147.909091,142.272727 147,143.181818 145.636364,143.181818 L132,143.181818 C130.636364,143.181818 129.727273,142.272727 129.727273,140.909091 Z M38.8181818,168.181818 C38.8181818,166.818182 39.7272727,165.909091 41.0909092,165.909091 L54.7272727,165.909091 C56.090909,165.909091 57,166.818182 57,168.181818 C57,169.545455 56.0909092,170.454545 54.7272727,170.454545 L41.0909092,170.454545 C39.7272729,170.454545 38.8181818,169.545454 38.8181818,168.181818 Z" id="形状" fill="#F04D4E" fill-rule="nonzero"/>
        <path d="M38.8181818,100 C38.8181818,98.6363637 39.7272727,97.7272727 41.0909092,97.7272727 L91.0909092,97.7272727 C92.4545455,97.7272727 93.3636363,98.6363635 93.3636363,100 C93.3636363,101.363637 92.4545455,102.272727 91.0909092,102.272727 L41.0909092,102.272727 C39.7272729,102.272727 38.8181818,101.363636 38.8181818,100 Z M66.0909092,140.909091 C66.0909092,139.545454 67,138.636363 68.3636363,138.636363 L118.363636,138.636363 C119.727273,138.636363 120.636364,139.545454 120.636364,140.909091 C120.636364,142.272727 119.727273,143.181818 118.363636,143.181818 L68.3636363,143.181818 C67,143.181818 66.0909092,142.272727 66.0909092,140.909091 Z M38.8181818,154.545454 C38.8181818,153.181818 39.7272727,152.272727 41.0909092,152.272727 L91.0909092,152.272727 C92.4545455,152.272727 93.3636363,153.181818 93.3636363,154.545454 C93.3636363,155.909091 92.4545455,156.818182 91.0909092,156.818182 L41.0909092,156.818182 C39.7272729,156.818182 38.8181818,155.909091 38.8181818,154.545454 Z" id="形状" fill="#FFFFFF" fill-rule="nonzero"/>
        <path d="M125.181818,161.363636 C125.181818,181.446718 141.462373,197.727273 161.545454,197.727273 C181.628536,197.727273 197.909091,181.446718 197.909091,161.363636 C197.909091,141.280555 181.628536,125 161.545454,125 C141.462373,125 125.181818,141.280555 125.181818,161.363636 Z" id="路径" fill="#F5B445" fill-rule="nonzero"/>
        <path d="M161.545454,206.818182 C136.545454,206.818182 116.090909,186.363636 116.090909,161.363636 C116.090909,136.363637 136.545455,115.909091 161.545454,115.909091 C186.545454,115.909091 207,136.363636 207,161.363636 C207,186.363636 186.545454,206.818182 161.545454,206.818182 Z M161.545454,125 C141.545454,125 125.181818,141.363636 125.181818,161.363636 C125.181818,181.363636 141.545454,197.727273 161.545454,197.727273 C181.545454,197.727273 197.909091,181.363636 197.909091,161.363636 C197.909091,141.363636 181.545454,125 161.545454,125 Z" id="形状" fill="#0B3A5B" fill-rule="nonzero"/>
        <path d="M172,126.818182 L126.545454,172.272727 C129.272727,180.454545 134.727273,187.727273 142,192.272727 L192,142.272727 C187.454546,134.545454 180.636364,129.090909 172,126.818182 L172,126.818182 Z M161.545454,197.727273 C181.545454,197.727273 197.909091,181.363636 197.909091,161.363636 C197.909091,158.636364 197.454545,155.454546 197,152.727273 L153.363636,196.363636 C155.636364,197.272727 158.818182,197.727273 161.545454,197.727273 Z" id="形状" fill="#FFCB5B" fill-rule="nonzero"/>
    </g>
    <g id="bug" transform="translate(138.000000, 135.000000)" fill-rule="nonzero">
        <path d="M24,5 L24,5 C35.3333333,5 41,10.7731055 41,22.3193164 L41,34.6806836 C41,46.2268945 35.3333333,52 24,52 L24,52 C12.6666667,52 7,46.2268945 7,34.6806836 L7,22.3193164 C7,10.7731055 12.6666667,5 24,5 Z" id="路径" fill="#0B3A5B"/>
        <path d="M2.9375,17 L44.0625,17 C46.0208333,17 47,18 47,20 L47,20 C47,22 46.0208333,23 44.0625,23 L2.9375,23 C0.979166667,23 0,22 0,20 L0,20 C0,18 0.979166667,17 2.9375,17 Z" id="路径" fill="#0B3A5B"/>
        <path d="M2.9375,29 L44.0625,29 C46.0208333,29 47,30 47,32 L47,32 C47,34 46.0208333,35 44.0625,35 L2.9375,35 C0.979166667,35 0,34 0,32 L0,32 C0,30 0.979166667,29 2.9375,29 Z" id="路径" fill="#0B3A5B"/>
        <path d="M2.9375,40 L44.0625,40 C46.0208333,40 47,41 47,43 L47,43 C47,45 46.0208333,46 44.0625,46 L2.9375,46 C0.979166667,46 0,45 0,43 L0,43 C0,41 0.979166667,40 2.9375,40 Z" id="路径" fill="#0B3A5B"/>
        <path d="M21,34 L27,34 C29,34 30,35 30,37 L30,37 C30,39 29,40 27,40 L21,40 C19,40 18,39 18,37 L18,37 C18,35 19,34 21,34 Z" id="路径" fill="#FFCB5B"/>
        <path d="M21,23 L27,23 C29,23 30,24 30,26 L30,26 C30,28 29,29 27,29 L21,29 C19,29 18,28 18,26 L18,26 C18,24 19,23 21,23 Z" id="路径" fill="#FFCB5B"/>
        <path d="M10.1,1.1 L10.1,1.1 C11.5666667,-0.366666667 13.0333333,-0.366666667 14.5,1.1 L18.9,5.5 C20.3666667,6.96666667 20.3666667,8.43333333 18.9,9.9 L18.9,9.9 C17.4333333,11.3666667 15.9666667,11.3666667 14.5,9.9 L10.1,5.5 C8.63333333,4.03333333 8.63333333,2.56666667 10.1,1.1 L10.1,1.1 Z" id="路径" fill="#0B3A5B"/>
        <path d="M36.9,1.1 L36.9,1.1 C38.3666667,2.56666667 38.3666667,4.03333333 36.9,5.5 L32.5,9.9 C31.0333333,11.3666667 29.5666667,11.3666667 28.1,9.9 L28.1,9.9 C26.6333333,8.43333333 26.6333333,6.96666667 28.1,5.5 L32.5,1.1 C33.9666667,-0.366666667 35.4333333,-0.366666667 36.9,1.1 L36.9,1.1 Z" id="路径" fill="#0B3A5B"/>
    </g>
</svg>