<svg xmlns="http://www.w3.org/2000/svg" viewBox="0 0 200 200"><path fill="currentColor"  d="M131.308333,17 C131.991667,17 132.666667,17.025 133.333333,17.0833334 L133.333333,17 C138.66868,17 143.785576,19.1191048 147.558333,22.8916668 L169.108333,44.4416668 C172.880895,48.2144243 175,53.3313203 175,58.6666668 L174.916667,58.6666668 C174.975,59.3333334 175,60.0083334 175,60.6916668 L175,125.333333 C175,139.140452 163.807119,150.333333 150,150.333333 L83.3333334,150.333333 C69.5262147,150.333333 58.3333334,139.140452 58.3333334,125.333333 L58.3333334,42 C58.3333334,28.1928813 69.5262147,17 83.3333334,17 L131.308333,17 L131.308333,17 Z M131.308333,29.5 L83.3333334,29.5 C76.429774,29.5 70.8333334,35.0964406 70.8333334,42 L70.8333334,125.333333 C70.8333334,132.236893 76.429774,137.833333 83.3333334,137.833333 L150,137.833333 C156.903559,137.833333 162.5,132.236893 162.5,125.333333 L162.5,60.6916668 C162.5,60.0132625 162.443748,59.3360257 162.333333,58.6666668 L150,58.6666668 C145.579725,58.6666668 141.340493,56.9107194 138.214887,53.7851131 C135.089281,50.6595068 133.333333,46.4202748 133.333333,42 L133.333333,29.6666668 C132.663974,29.5562525 131.986738,29.5 131.308333,29.5 L131.308333,29.5 Z M58.3333334,50.3333334 L58.3333334,62.8333334 L50,62.8333334 C43.0964406,62.8333334 37.5,68.429774 37.5,75.3333334 L37.5,158.666667 C37.5,165.570226 43.0964406,171.166667 50,171.166667 L116.666667,171.166667 C123.570226,171.166667 129.166667,165.570226 129.166667,158.666667 L129.166667,150.333333 L141.666667,150.333333 L141.666667,158.666667 C141.666667,172.473786 130.473785,183.666667 116.666667,183.666667 L50,183.666667 C36.1928813,183.666667 25,172.473786 25,158.666667 L25,75.3333334 C25,61.5262147 36.1928813,50.3333334 50,50.3333334 L58.3333334,50.3333334 Z M145.833333,38.8416668 L153.158333,46.1666668 L150,46.1666668 C148.894931,46.1666668 147.835123,45.7276799 147.053722,44.9462783 C146.27232,44.1648767 145.833333,43.1050687 145.833333,42 L145.833333,38.8416668 Z"/></svg>