<svg viewBox="0 0 145 145" xmlns="http://www.w3.org/2000/svg">
    <path d="M42,9 L42,9 C62,9 72,19.1950586 72,39.5851758 L72,61.4148242 C72,81.8049414 62,92 42,92 L42,92 C22,92 12,81.8049414 12,61.4148242 L12,39.5851758 C12,19.1950586 22,9 42,9 Z" fill="currentColor"/>
    <path d="M5.1875,30 L77.8125,30 C81.2708333,30 83,31.8333333 83,35.5 L83,35.5 C83,39.1666667 81.2708333,41 77.8125,41 L5.1875,41 C1.72916667,41 0,39.1666667 0,35.5 L0,35.5 C0,31.8333333 1.72916667,30 5.1875,30 Z" fill="currentColor"/>
    <path d="M5.1875,51 L77.8125,51 C81.2708333,51 83,52.8333333 83,56.5 L83,56.5 C83,60.1666667 81.2708333,62 77.8125,62 L5.1875,62 C1.72916667,62 0,60.1666667 0,56.5 L0,56.5 C0,52.8333333 1.72916667,51 5.1875,51 Z" fill="currentColor"/>
    <path d="M5.1875,71 L77.8125,71 C81.2708333,71 83,72.8333333 83,76.5 L83,76.5 C83,80.1666667 81.2708333,82 77.8125,82 L5.1875,82 C1.72916667,82 0,80.1666667 0,76.5 L0,76.5 C0,72.8333333 1.72916667,71 5.1875,71 Z" fill="currentColor"/>
    <path d="M18,2 L18,2 C20.6666667,-0.666666667 23.3333333,-0.666666667 26,2 L34,10 C36.6666667,12.6666667 36.6666667,15.3333333 34,18 L34,18 C31.3333333,20.6666667 28.6666667,20.6666667 26,18 L18,10 C15.3333333,7.33333333 15.3333333,4.66666667 18,2 L18,2 Z" fill="currentColor"/>
    <path d="M65,2 L65,2 C67.6666667,4.66666667 67.6666667,7.33333333 65,10 L57,18 C54.3333333,20.6666667 51.6666667,20.6666667 49,18 L49,18 C46.3333333,15.3333333 46.3333333,12.6666667 49,10 L57,2 C59.6666667,-0.666666667 62.3333333,-0.666666667 65,2 L65,2 Z" fill="currentColor"/>
    <path d="M37.25,60 L47.75,60 C51.25,60 53,61.8333333 53,65.5 L53,65.5 C53,69.1666667 51.25,71 47.75,71 L37.25,71 C33.75,71 32,69.1666667 32,65.5 L32,65.5 C32,61.8333333 33.75,60 37.25,60 Z" fill="#FFFFFF"/>
    <path d="M37.25,41 L47.75,41 C51.25,41 53,42.8333333 53,46.5 L53,46.5 C53,50.1666667 51.25,52 47.75,52 L37.25,52 C33.75,52 32,50.1666667 32,46.5 L32,46.5 C32,42.8333333 33.75,41 37.25,41 Z" fill="#FFFFFF"/>
</svg>