<svg viewBox="0 0 1024 1024" xmlns="http://www.w3.org/2000/svg">
    <path d="M96.711111 1024C96.711111 682.666667 96.711111 341.333333 96.711111 0c214.91358 0 431.091358 0 646.004938 0 0 34.133333 0 68.266667 0 102.4-32.869136 0-64.474074 0-99.871605 0 0 64.474074 0 126.419753 0 188.365432 64.474074 0 189.62963 0 189.62963 0L832.474074 202.271605c0 0 61.945679 0 94.814815 0 0 275.595062 0 546.133333 0 821.728395C647.901235 1024 372.306173 1024 96.711111 1024zM197.846914 102.4C197.846914 383.051852 197.846914 657.382716 197.846914 931.71358c213.649383 0 423.506173 0 632.098765 0 0-180.780247 0-356.503704 0-541.076543-98.607407 0-194.68642 0-295.822222 0 0-102.4 0-195.950617 0-289.501235C420.345679 102.4 311.624691 102.4 197.846914 102.4z" fill="currentColor"/>
    <path d="M324.266667 251.575309c31.604938 0 60.681481 0 91.022222 0 0 48.039506 0 93.550617 0 140.325926-31.604938 0-59.417284 0-91.022222 0C324.266667 345.125926 324.266667 302.14321 324.266667 251.575309z" fill="currentColor"/>
    <path d="M743.980247 102.4l99.871605 0 0 99.871605-99.871605 0 0-99.871605Z" fill="currentColor"/>
    <path d="M415.288889 613.135802l193.422222 0 0 104.928395-193.422222 0 0-104.928395Z" fill="currentColor"/>
    <path d="M317.945679 718.064198l97.34321 0 0 97.34321-97.34321 0 0-97.34321Z" fill="currentColor"/>
    <path d="M608.711111 718.064198l97.34321 0 0 97.34321-97.34321 0 0-97.34321Z" fill="currentColor"/>
s</svg>