<svg viewBox="0 -100 1235 1124" version="1.1" xmlns="http://www.w3.org/2000/svg"><path d="M1144.470588 90.352941 478.418824 90.352941 420.442353 0 90.352941 0C40.448 0 0 40.478118 0 90.352941L0 933.647059C0 983.552 40.448 1024 90.352941 1024L1144.470588 1024C1194.375529 1024 1234.823529 983.521882 1234.823529 933.647059L1234.823529 180.736C1234.853647 130.831059 1194.375529 90.352941 1144.470588 90.352941L1144.470588 90.352941ZM1174.588235 933.647059C1174.588235 950.302118 1161.095529 963.794824 1144.470588 963.794824L90.352941 963.794824C73.728 963.794824 60.235294 950.302118 60.235294 933.647059L60.235294 331.294118C60.235294 314.639059 73.728 301.176471 90.352941 301.176471L1144.470588 301.176471C1161.095529 301.176471 1174.588235 314.639059 1174.588235 331.294118L1174.588235 933.647059 1174.588235 933.647059ZM1174.588235 240.971294 60.235294 240.971294 60.235294 90.383059C60.235294 73.758118 73.728 60.265412 90.352941 60.265412L391.047529 60.265412 451.102118 150.618353 1144.470588 150.618353C1161.095529 150.618353 1174.588235 164.111059 1174.588235 180.736L1174.588235 240.971294 1174.588235 240.971294Z" fill="currentColor" /></svg>